<svg width="500" height="500" viewBox="0 0 500 500" fill="none" xmlns="http://www.w3.org/2000/svg">
<rect width="500" height="500" rx="75" fill="white"/>
<path d="M159.861 162.281C118.955 227.903 120.364 271.358 162.916 359.365C89.7161 280.893 100.773 229.332 147.059 140.635C177.444 152.682 201.294 172.892 208.75 204.295C186.229 180.986 175.754 172.247 159.861 162.281Z" fill="#3A3A3A"/>
<path d="M250 177.559V187.49C229.131 185.523 221.109 190.532 206.256 198.784L204.194 191.223C221.911 180.798 231.952 178.125 250 177.559Z" fill="#3A3A3A"/>
<path d="M340.14 162.281C381.045 227.903 379.636 271.358 337.084 359.365C410.284 280.893 399.227 229.332 352.941 140.635C322.556 152.682 298.707 172.892 291.25 204.295C313.771 180.986 324.247 172.247 340.14 162.281Z" fill="#3A3A3A"/>
<path d="M250 177.559V187.49C270.869 185.523 278.891 190.532 293.744 198.784L295.806 191.223C278.089 180.798 268.049 178.125 250 177.559Z" fill="#3A3A3A"/>
<path d="M220.98 261.147C220.98 272.858 214.243 282.352 205.932 282.352C197.622 282.352 190.885 272.858 190.885 261.147C190.885 249.435 197.622 239.941 205.932 239.941C214.243 239.941 220.98 249.435 220.98 261.147Z" fill="#3A3A3A"/>
<path d="M309.115 261.147C309.115 272.858 302.378 282.352 294.068 282.352C285.757 282.352 279.02 272.858 279.02 261.147C279.02 249.435 285.757 239.941 294.068 239.941C302.378 239.941 309.115 249.435 309.115 261.147Z" fill="#3A3A3A"/>
<path d="M250.043 308.058C235.636 323.504 227.55 305.627 233.31 296.557C239.071 287.486 238.861 298.477 238.861 298.477C238.52 303.454 240.591 306.299 246.423 303.674C246.423 303.674 259.1 300.912 250.043 308.058Z" fill="#3A3A3A"/>
<path d="M249.957 308.059C264.364 323.505 272.45 305.628 266.69 296.558C260.929 287.488 261.139 298.478 261.139 298.478C261.481 303.455 259.409 306.301 253.577 303.676C253.577 303.676 241.52 300.501 249.957 308.059Z" fill="#3A3A3A"/>
<path d="M250.011 301.674L246.236 303.761L253.774 303.774L250.011 301.674Z" fill="#3A3A3A"/>
</svg>
